# xmcd
# Track frame offsets:
# 150
# 13720
# 24242
# 36627
# 47827
# 56455
# 66455
# 74635
# 85877
# 93167
# 104592
# 117632
# 126027
# 135882
# 147247
# 155620
# 169327
# 176202
#
# Disc length: 2474 seconds
# Revision: 0
# Processed by: cddbd v1.4PL0 Copyright (c) Steve Scherf et al.
# Submitted via: VisiTrax 2.9.3.171 - For more info visit www.synapsa.com
#
DISCID=0a09a812
DTITLE=Chad Morgan - Morgan Magic
DYEAR=1900
DGENRE=
TTITLE0=I'M My Own Grandpa
TTITLE1=Dinkum Little Aussie Sport
TTITLE2=She's Got Over You
TTITLE3=Same Old Boat
TTITLE4=Jack The One Armed Shearer
TTITLE5=Tv's Hurtin' Me
TTITLE6=Down On The Floor
TTITLE7=The Pokies
TTITLE8=Corn On My Nose
TTITLE9=Sunday Best
TTITLE10=Goodbye To Scrubby Creek
TTITLE11=You've Had The Gong
TTITLE12=Morgan Magic
TTITLE13=When You Phone Don't Ring
TTITLE14=1-2-Free For Marriage
TTITLE15=Musos Party
TTITLE16=Boys In Blue
TTITLE17=Highway Fever
EXTD=
EXTT0=
EXTT1=
EXTT2=
EXTT3=
EXTT4=
EXTT5=
EXTT6=
EXTT7=
EXTT8=
EXTT9=
EXTT10=
EXTT11=
EXTT12=
EXTT13=
EXTT14=
EXTT15=
EXTT16=
EXTT17=
PLAYORDER=
